<?xml version="1.0" standalone="no"?>
<!DOCTYPE svg PUBLIC "-//W3C//DTD SVG 20010904//EN"
 "http://www.w3.org/TR/2001/REC-SVG-20010904/DTD/svg10.dtd">
<svg version="1.0" xmlns="http://www.w3.org/2000/svg"
 width="800.000000pt" height="177.000000pt" viewBox="0 0 800.000000 177.000000"
 preserveAspectRatio="xMidYMid meet">
<metadata>
Created by potrace 1.10, written by Peter Selinger 2001-2011
</metadata>
<g transform="translate(0.000000,177.000000) scale(0.050000,-0.050000)"
fill="#000000" stroke="none">
<path d="M4 2705 l6 -835 56 -95 c165 -280 587 -286 769 -11 l55 83 6 661 c7
746 3 774 -122 899 -112 111 -195 133 -512 133 l-264 0 6 -835z m607 737 c98
-44 180 -138 208 -238 29 -102 27 -1190 -1 -1294 -89 -318 -509 -384 -692
-108 l-56 85 -6 797 -6 796 236 0 c186 -1 253 -9 317 -38z"/>
<path d="M1000 2299 c0 -456 6 -486 117 -606 109 -117 186 -140 499 -149 l286
-9 -6 451 -6 450 -62 87 c-116 161 -212 196 -543 197 l-285 0 0 -421z m618
313 c186 -99 208 -164 205 -612 l-2 -370 -215 -6 c-462 -12 -546 94 -546 693
l0 347 245 -8 c187 -6 261 -16 313 -44z"/>
<path d="M2290 2140 l0 -580 105 0 105 0 0 241 c0 289 23 364 125 397 175 58
215 -7 215 -351 l0 -287 110 0 110 0 0 299 c0 164 -10 324 -21 355 -73 193
-325 262 -480 132 l-59 -50 0 212 0 212 -105 0 -105 0 0 -580z"/>
<path d="M6380 2140 l0 -580 110 0 c97 0 110 5 110 41 0 39 1 39 60 -4 153
-114 405 -57 528 119 257 365 -162 875 -520 632 -38 -27 -72 -48 -74 -48 -2 0
-1 94 2 210 l7 210 -112 0 -111 0 0 -580z m600 3 c163 -163 39 -427 -186 -397
-280 38 -247 454 36 454 76 0 104 -11 150 -57z"/>
<path d="M3490 2401 c-472 -115 -433 -822 48 -857 143 -10 242 20 337 103 333
292 44 859 -385 754z m207 -230 c112 -58 140 -244 52 -349 -170 -202 -481 22
-359 258 59 115 188 153 307 91z"/>
<path d="M4473 2399 c-32 -9 -74 -32 -95 -51 -35 -31 -38 -31 -38 -1 0 21 -17
33 -47 33 -27 0 -76 6 -110 13 l-63 12 0 -422 0 -423 110 0 110 0 0 278 c0
325 18 370 150 370 119 0 130 -32 130 -362 l0 -286 110 0 110 0 0 259 c0 288
16 346 105 383 150 62 203 -51 191 -407 l-8 -235 111 0 111 0 -5 305 c-7 344
-30 431 -133 493 -128 78 -303 69 -382 -18 l-37 -41 -43 41 c-72 68 -175 90
-277 59z"/>
<path d="M5748 2398 c-363 -85 -422 -635 -88 -813 173 -92 531 -25 574 108 18
54 -134 116 -202 82 -34 -17 -79 -37 -99 -43 -52 -17 -188 23 -234 69 -82 82
-58 89 271 83 l310 -7 0 102 c0 295 -243 487 -532 419z m264 -246 c98 -98 90
-104 -142 -103 -220 1 -234 8 -178 88 74 105 223 112 320 15z"/>
<path d="M7647 2397 c-198 -45 -348 -274 -316 -483 63 -422 622 -515 814 -135
172 339 -123 705 -498 618z m265 -265 c127 -127 71 -340 -99 -383 -216 -54
-366 222 -207 381 99 99 209 99 306 2z"/>
<path d="M8160 2391 c0 -6 63 -96 140 -200 170 -229 171 -192 -9 -432 l-149
-199 128 0 127 0 85 120 c102 146 91 146 185 0 l77 -120 131 0 c101 0 126 6
110 25 -64 82 -285 392 -285 399 0 5 63 93 140 196 169 226 169 220 19 216
l-121 -3 -74 -116 c-87 -137 -81 -137 -178 2 l-76 108 -125 7 c-69 4 -125 2
-125 -3z"/>
</g>
</svg>
